<mxfile host="app.diagrams.net" modified="2024-05-02T02:39:27.635Z" agent="Mozilla/5.0 (iPhone; CPU iPhone OS 17_0 like Mac OS X) AppleWebKit/605.1.15 (KHTML, like Gecko) Version/17.0 Mobile/15E148 Safari/604.1" version="24.3.1" etag="DEQD7Kac15C6MrGJEihv" type="github">
  <diagram name="Page-1" id="REYUk04sWO72cyWuI9ya">
    <mxGraphModel>
      <root>
        <mxCell id="0" />
        <mxCell id="1" parent="0" />
      </root>
    </mxGraphModel>
  </diagram>
</mxfile>
